<svg width="563" height="250" viewBox="0 0 563 250" fill="none" xmlns="http://www.w3.org/2000/svg">
<path d="M562.707 242.707C563.098 242.317 563.098 241.683 562.707 241.293L556.343 234.929C555.953 234.538 555.319 234.538 554.929 234.929C554.538 235.319 554.538 235.953 554.929 236.343L560.586 242L554.929 247.657C554.538 248.047 554.538 248.681 554.929 249.071C555.319 249.462 555.953 249.462 556.343 249.071L562.707 242.707ZM0 243H562V241H0V243Z" fill="#203D4A"/>
<path d="M1 183L30.4051 163.528C50.8983 149.957 76.0502 145.358 100.02 150.799L101.048 151.033C126.184 156.738 152.559 151.394 173.49 136.353L202.048 115.832C210.774 109.562 220.552 104.905 230.919 102.082L270.748 91.2354C283.941 87.6426 295.958 80.6436 305.592 70.9405V70.9405C320.231 56.1973 340.149 47.9058 360.925 47.9058H410.452V47.9058C416.955 47.9058 422.226 53.1771 422.226 59.6797V117.78C422.226 166.233 479.279 192.144 515.763 160.261V160.261C520.879 155.79 526.76 152.281 533.123 149.901L553.5 142.28" stroke="#203D4A"/>
<line x1="336.5" y1="227.006" x2="336.5" y2="-3.05176e-05" stroke="#D36969"/>
<line x1="433.5" y1="227.006" x2="433.5" y2="-3.05176e-05" stroke="#69D393"/>
<circle cx="67" cy="149" r="4" fill="#3C8AFF"/>
<circle cx="131" cy="153" r="4" fill="#3C8AFF"/>
<circle cx="131" cy="153" r="4" fill="#3C8AFF"/>
<circle cx="215" cy="108" r="4" fill="#3C8AFF"/>
<circle cx="285" cy="85" r="4" fill="#3C8AFF"/>
<circle cx="413" cy="48" r="4" fill="#3C8AFF"/>
<circle cx="339" cy="52" r="4" fill="#3C8AFF"/>
<path d="M111.84 161.515V165H111.385V161.515H111.84ZM113.7 161.515C114.08 161.515 114.409 161.587 114.685 161.73C114.965 161.87 115.179 162.072 115.325 162.335C115.475 162.598 115.55 162.908 115.55 163.265C115.55 163.622 115.475 163.932 115.325 164.195C115.179 164.455 114.965 164.655 114.685 164.795C114.409 164.932 114.08 165 113.7 165H112.615V161.515H113.7ZM113.7 164.625C114.15 164.625 114.494 164.507 114.73 164.27C114.967 164.03 115.085 163.695 115.085 163.265C115.085 162.832 114.965 162.493 114.725 162.25C114.489 162.007 114.147 161.885 113.7 161.885H113.07V164.625H113.7ZM117.314 163.62C117.314 163.34 117.37 163.095 117.484 162.885C117.597 162.672 117.752 162.507 117.949 162.39C118.149 162.273 118.37 162.215 118.614 162.215C118.854 162.215 119.062 162.267 119.239 162.37C119.415 162.473 119.547 162.603 119.634 162.76V162.26H120.094V165H119.634V164.49C119.544 164.65 119.409 164.783 119.229 164.89C119.052 164.993 118.845 165.045 118.609 165.045C118.365 165.045 118.145 164.985 117.949 164.865C117.752 164.745 117.597 164.577 117.484 164.36C117.37 164.143 117.314 163.897 117.314 163.62ZM119.634 163.625C119.634 163.418 119.592 163.238 119.509 163.085C119.425 162.932 119.312 162.815 119.169 162.735C119.029 162.652 118.874 162.61 118.704 162.61C118.534 162.61 118.379 162.65 118.239 162.73C118.099 162.81 117.987 162.927 117.904 163.08C117.82 163.233 117.779 163.413 117.779 163.62C117.779 163.83 117.82 164.013 117.904 164.17C117.987 164.323 118.099 164.442 118.239 164.525C118.379 164.605 118.534 164.645 118.704 164.645C118.874 164.645 119.029 164.605 119.169 164.525C119.312 164.442 119.425 164.323 119.509 164.17C119.592 164.013 119.634 163.832 119.634 163.625ZM121.993 162.215C122.229 162.215 122.436 162.267 122.613 162.37C122.793 162.473 122.926 162.603 123.013 162.76V162.26H123.473V165.06C123.473 165.31 123.419 165.532 123.313 165.725C123.206 165.922 123.053 166.075 122.853 166.185C122.656 166.295 122.426 166.35 122.163 166.35C121.803 166.35 121.503 166.265 121.263 166.095C121.023 165.925 120.881 165.693 120.838 165.4H121.288C121.338 165.567 121.441 165.7 121.598 165.8C121.754 165.903 121.943 165.955 122.163 165.955C122.413 165.955 122.616 165.877 122.773 165.72C122.933 165.563 123.013 165.343 123.013 165.06V164.485C122.923 164.645 122.789 164.778 122.613 164.885C122.436 164.992 122.229 165.045 121.993 165.045C121.749 165.045 121.528 164.985 121.328 164.865C121.131 164.745 120.976 164.577 120.863 164.36C120.749 164.143 120.693 163.897 120.693 163.62C120.693 163.34 120.749 163.095 120.863 162.885C120.976 162.672 121.131 162.507 121.328 162.39C121.528 162.273 121.749 162.215 121.993 162.215ZM123.013 163.625C123.013 163.418 122.971 163.238 122.888 163.085C122.804 162.932 122.691 162.815 122.548 162.735C122.408 162.652 122.253 162.61 122.083 162.61C121.913 162.61 121.758 162.65 121.618 162.73C121.478 162.81 121.366 162.927 121.283 163.08C121.199 163.233 121.158 163.413 121.158 163.62C121.158 163.83 121.199 164.013 121.283 164.17C121.366 164.323 121.478 164.442 121.618 164.525C121.758 164.605 121.913 164.645 122.083 164.645C122.253 164.645 122.408 164.605 122.548 164.525C122.691 164.442 122.804 164.323 122.888 164.17C122.971 164.013 123.013 163.832 123.013 163.625ZM124.056 164.195V163.85L125.811 161.42H126.356V163.8H126.856V164.195H126.356V165H125.906V164.195H124.056ZM125.926 161.895L124.581 163.8H125.926V161.895ZM127.301 162.295C127.324 161.988 127.443 161.748 127.656 161.575C127.869 161.402 128.146 161.315 128.486 161.315C128.713 161.315 128.908 161.357 129.071 161.44C129.238 161.52 129.363 161.63 129.446 161.77C129.533 161.91 129.576 162.068 129.576 162.245C129.576 162.452 129.516 162.63 129.396 162.78C129.279 162.93 129.126 163.027 128.936 163.07V163.095C129.153 163.148 129.324 163.253 129.451 163.41C129.578 163.567 129.641 163.772 129.641 164.025C129.641 164.215 129.598 164.387 129.511 164.54C129.424 164.69 129.294 164.808 129.121 164.895C128.948 164.982 128.739 165.025 128.496 165.025C128.143 165.025 127.853 164.933 127.626 164.75C127.399 164.563 127.273 164.3 127.246 163.96H127.686C127.709 164.16 127.791 164.323 127.931 164.45C128.071 164.577 128.258 164.64 128.491 164.64C128.724 164.64 128.901 164.58 129.021 164.46C129.144 164.337 129.206 164.178 129.206 163.985C129.206 163.735 129.123 163.555 128.956 163.445C128.789 163.335 128.538 163.28 128.201 163.28H128.086V162.9H128.206C128.513 162.897 128.744 162.847 128.901 162.75C129.058 162.65 129.136 162.497 129.136 162.29C129.136 162.113 129.078 161.972 128.961 161.865C128.848 161.758 128.684 161.705 128.471 161.705C128.264 161.705 128.098 161.758 127.971 161.865C127.844 161.972 127.769 162.115 127.746 162.295H127.301ZM131.35 164.58L132.2 162.26H132.685L131.61 165H131.08L130.005 162.26H130.495L131.35 164.58ZM134.248 162.635H133.673V165H133.218V162.635H132.863V162.26H133.218V162.065C133.218 161.758 133.296 161.535 133.453 161.395C133.613 161.252 133.868 161.18 134.218 161.18V161.56C134.018 161.56 133.876 161.6 133.793 161.68C133.713 161.757 133.673 161.885 133.673 162.065V162.26H134.248V162.635ZM135.909 162.215C136.145 162.215 136.352 162.267 136.529 162.37C136.709 162.473 136.842 162.603 136.929 162.76V162.26H137.389V165.06C137.389 165.31 137.335 165.532 137.229 165.725C137.122 165.922 136.969 166.075 136.769 166.185C136.572 166.295 136.342 166.35 136.079 166.35C135.719 166.35 135.419 166.265 135.179 166.095C134.939 165.925 134.797 165.693 134.754 165.4H135.204C135.254 165.567 135.357 165.7 135.514 165.8C135.67 165.903 135.859 165.955 136.079 165.955C136.329 165.955 136.532 165.877 136.689 165.72C136.849 165.563 136.929 165.343 136.929 165.06V164.485C136.839 164.645 136.705 164.778 136.529 164.885C136.352 164.992 136.145 165.045 135.909 165.045C135.665 165.045 135.444 164.985 135.244 164.865C135.047 164.745 134.892 164.577 134.779 164.36C134.665 164.143 134.609 163.897 134.609 163.62C134.609 163.34 134.665 163.095 134.779 162.885C134.892 162.672 135.047 162.507 135.244 162.39C135.444 162.273 135.665 162.215 135.909 162.215ZM136.929 163.625C136.929 163.418 136.887 163.238 136.804 163.085C136.72 162.932 136.607 162.815 136.464 162.735C136.324 162.652 136.169 162.61 135.999 162.61C135.829 162.61 135.674 162.65 135.534 162.73C135.394 162.81 135.282 162.927 135.199 163.08C135.115 163.233 135.074 163.413 135.074 163.62C135.074 163.83 135.115 164.013 135.199 164.17C135.282 164.323 135.394 164.442 135.534 164.525C135.674 164.605 135.829 164.645 135.999 164.645C136.169 164.645 136.324 164.605 136.464 164.525C136.607 164.442 136.72 164.323 136.804 164.17C136.887 164.013 136.929 163.832 136.929 163.625ZM111.679 174.894C112.127 174.521 112.484 174.21 112.75 173.963C113.016 173.711 113.238 173.45 113.415 173.179C113.592 172.908 113.681 172.642 113.681 172.381C113.681 172.143 113.625 171.956 113.513 171.821C113.401 171.686 113.228 171.618 112.995 171.618C112.762 171.618 112.582 171.697 112.456 171.856C112.33 172.01 112.265 172.222 112.26 172.493H111.308C111.327 171.933 111.492 171.508 111.805 171.219C112.122 170.93 112.524 170.785 113.009 170.785C113.541 170.785 113.949 170.927 114.234 171.212C114.519 171.492 114.661 171.863 114.661 172.325C114.661 172.689 114.563 173.037 114.367 173.368C114.171 173.699 113.947 173.989 113.695 174.236C113.443 174.479 113.114 174.773 112.708 175.118H114.773V175.93H111.315V175.202L111.679 174.894ZM115.699 174.894C116.147 174.521 116.504 174.21 116.77 173.963C117.036 173.711 117.257 173.45 117.435 173.179C117.612 172.908 117.701 172.642 117.701 172.381C117.701 172.143 117.645 171.956 117.533 171.821C117.421 171.686 117.248 171.618 117.015 171.618C116.781 171.618 116.602 171.697 116.476 171.856C116.35 172.01 116.284 172.222 116.28 172.493H115.328C115.346 171.933 115.512 171.508 115.825 171.219C116.142 170.93 116.543 170.785 117.029 170.785C117.561 170.785 117.969 170.927 118.254 171.212C118.538 171.492 118.681 171.863 118.681 172.325C118.681 172.689 118.583 173.037 118.387 173.368C118.191 173.699 117.967 173.989 117.715 174.236C117.463 174.479 117.134 174.773 116.728 175.118H118.793V175.93H115.335V175.202L115.699 174.894ZM122.147 169.371L120.257 177.267H119.298L121.188 169.371H122.147ZM122.814 173.382C122.814 172.575 122.959 171.942 123.248 171.485C123.542 171.028 124.028 170.799 124.704 170.799C125.381 170.799 125.864 171.028 126.153 171.485C126.447 171.942 126.594 172.575 126.594 173.382C126.594 174.194 126.447 174.831 126.153 175.293C125.864 175.755 125.381 175.986 124.704 175.986C124.028 175.986 123.542 175.755 123.248 175.293C122.959 174.831 122.814 174.194 122.814 173.382ZM125.628 173.382C125.628 173.037 125.605 172.747 125.558 172.514C125.516 172.276 125.428 172.082 125.292 171.933C125.162 171.784 124.966 171.709 124.704 171.709C124.443 171.709 124.245 171.784 124.109 171.933C123.979 172.082 123.89 172.276 123.843 172.514C123.801 172.747 123.78 173.037 123.78 173.382C123.78 173.737 123.801 174.035 123.843 174.278C123.885 174.516 123.974 174.71 124.109 174.859C124.245 175.004 124.443 175.076 124.704 175.076C124.966 175.076 125.164 175.004 125.299 174.859C125.435 174.71 125.523 174.516 125.565 174.278C125.607 174.035 125.628 173.737 125.628 173.382ZM130.588 171.639L128.726 176H127.732L129.608 171.751H127.214V170.911H130.588V171.639ZM133.912 169.371L132.022 177.267H131.063L132.953 169.371H133.912ZM134.887 174.894C135.335 174.521 135.692 174.21 135.958 173.963C136.224 173.711 136.446 173.45 136.623 173.179C136.8 172.908 136.889 172.642 136.889 172.381C136.889 172.143 136.833 171.956 136.721 171.821C136.609 171.686 136.436 171.618 136.203 171.618C135.97 171.618 135.79 171.697 135.664 171.856C135.538 172.01 135.473 172.222 135.468 172.493H134.516C134.535 171.933 134.7 171.508 135.013 171.219C135.33 170.93 135.732 170.785 136.217 170.785C136.749 170.785 137.157 170.927 137.442 171.212C137.727 171.492 137.869 171.863 137.869 172.325C137.869 172.689 137.771 173.037 137.575 173.368C137.379 173.699 137.155 173.989 136.903 174.236C136.651 174.479 136.322 174.773 135.916 175.118H137.981V175.93H134.523V175.202L134.887 174.894ZM138.599 173.382C138.599 172.575 138.743 171.942 139.033 171.485C139.327 171.028 139.812 170.799 140.489 170.799C141.165 170.799 141.648 171.028 141.938 171.485C142.232 171.942 142.379 172.575 142.379 173.382C142.379 174.194 142.232 174.831 141.938 175.293C141.648 175.755 141.165 175.986 140.489 175.986C139.812 175.986 139.327 175.755 139.033 175.293C138.743 174.831 138.599 174.194 138.599 173.382ZM141.413 173.382C141.413 173.037 141.389 172.747 141.343 172.514C141.301 172.276 141.212 172.082 141.077 171.933C140.946 171.784 140.75 171.709 140.489 171.709C140.227 171.709 140.029 171.784 139.894 171.933C139.763 172.082 139.674 172.276 139.628 172.514C139.586 172.747 139.565 173.037 139.565 173.382C139.565 173.737 139.586 174.035 139.628 174.278C139.67 174.516 139.758 174.71 139.894 174.859C140.029 175.004 140.227 175.076 140.489 175.076C140.75 175.076 140.948 175.004 141.084 174.859C141.219 174.71 141.308 174.516 141.35 174.278C141.392 174.035 141.413 173.737 141.413 173.382ZM143.432 174.894C143.88 174.521 144.237 174.21 144.503 173.963C144.769 173.711 144.991 173.45 145.168 173.179C145.345 172.908 145.434 172.642 145.434 172.381C145.434 172.143 145.378 171.956 145.266 171.821C145.154 171.686 144.981 171.618 144.748 171.618C144.515 171.618 144.335 171.697 144.209 171.856C144.083 172.01 144.018 172.222 144.013 172.493H143.061C143.08 171.933 143.245 171.508 143.558 171.219C143.875 170.93 144.277 170.785 144.762 170.785C145.294 170.785 145.702 170.927 145.987 171.212C146.272 171.492 146.414 171.863 146.414 172.325C146.414 172.689 146.316 173.037 146.12 173.368C145.924 173.699 145.7 173.989 145.448 174.236C145.196 174.479 144.867 174.773 144.461 175.118H146.526V175.93H143.068V175.202L143.432 174.894ZM147.451 174.894C147.899 174.521 148.256 174.21 148.522 173.963C148.788 173.711 149.01 173.45 149.187 173.179C149.365 172.908 149.453 172.642 149.453 172.381C149.453 172.143 149.397 171.956 149.285 171.821C149.173 171.686 149.001 171.618 148.767 171.618C148.534 171.618 148.354 171.697 148.228 171.856C148.102 172.01 148.037 172.222 148.032 172.493H147.08C147.099 171.933 147.265 171.508 147.577 171.219C147.895 170.93 148.296 170.785 148.781 170.785C149.313 170.785 149.722 170.927 150.006 171.212C150.291 171.492 150.433 171.863 150.433 172.325C150.433 172.689 150.335 173.037 150.139 173.368C149.943 173.699 149.719 173.989 149.467 174.236C149.215 174.479 148.886 174.773 148.48 175.118H150.545V175.93H147.087V175.202L147.451 174.894Z" fill="#3C8AFF"/>
<path d="M51.84 124.515V128H51.385V124.515H51.84ZM53.7005 124.515C54.0805 124.515 54.4088 124.587 54.6855 124.73C54.9655 124.87 55.1788 125.072 55.3255 125.335C55.4755 125.598 55.5505 125.908 55.5505 126.265C55.5505 126.622 55.4755 126.932 55.3255 127.195C55.1788 127.455 54.9655 127.655 54.6855 127.795C54.4088 127.932 54.0805 128 53.7005 128H52.6155V124.515H53.7005ZM53.7005 127.625C54.1505 127.625 54.4938 127.507 54.7305 127.27C54.9671 127.03 55.0855 126.695 55.0855 126.265C55.0855 125.832 54.9655 125.493 54.7255 125.25C54.4888 125.007 54.1471 124.885 53.7005 124.885H53.0705V127.625H53.7005ZM57.3136 126.62C57.3136 126.34 57.3703 126.095 57.4836 125.885C57.597 125.672 57.752 125.507 57.9486 125.39C58.1486 125.273 58.3703 125.215 58.6136 125.215C58.8536 125.215 59.062 125.267 59.2386 125.37C59.4153 125.473 59.547 125.603 59.6336 125.76V125.26H60.0936V128H59.6336V127.49C59.5436 127.65 59.4086 127.783 59.2286 127.89C59.052 127.993 58.8453 128.045 58.6086 128.045C58.3653 128.045 58.1453 127.985 57.9486 127.865C57.752 127.745 57.597 127.577 57.4836 127.36C57.3703 127.143 57.3136 126.897 57.3136 126.62ZM59.6336 126.625C59.6336 126.418 59.592 126.238 59.5086 126.085C59.4253 125.932 59.312 125.815 59.1686 125.735C59.0286 125.652 58.8736 125.61 58.7036 125.61C58.5336 125.61 58.3786 125.65 58.2386 125.73C58.0986 125.81 57.987 125.927 57.9036 126.08C57.8203 126.233 57.7786 126.413 57.7786 126.62C57.7786 126.83 57.8203 127.013 57.9036 127.17C57.987 127.323 58.0986 127.442 58.2386 127.525C58.3786 127.605 58.5336 127.645 58.7036 127.645C58.8736 127.645 59.0286 127.605 59.1686 127.525C59.312 127.442 59.4253 127.323 59.5086 127.17C59.592 127.013 59.6336 126.832 59.6336 126.625ZM61.9925 125.215C62.2292 125.215 62.4359 125.267 62.6125 125.37C62.7925 125.473 62.9259 125.603 63.0125 125.76V125.26H63.4725V128.06C63.4725 128.31 63.4192 128.532 63.3125 128.725C63.2059 128.922 63.0525 129.075 62.8525 129.185C62.6559 129.295 62.4259 129.35 62.1625 129.35C61.8025 129.35 61.5025 129.265 61.2625 129.095C61.0225 128.925 60.8809 128.693 60.8375 128.4H61.2875C61.3375 128.567 61.4409 128.7 61.5975 128.8C61.7542 128.903 61.9425 128.955 62.1625 128.955C62.4125 128.955 62.6159 128.877 62.7725 128.72C62.9325 128.563 63.0125 128.343 63.0125 128.06V127.485C62.9225 127.645 62.7892 127.778 62.6125 127.885C62.4359 127.992 62.2292 128.045 61.9925 128.045C61.7492 128.045 61.5275 127.985 61.3275 127.865C61.1309 127.745 60.9759 127.577 60.8625 127.36C60.7492 127.143 60.6925 126.897 60.6925 126.62C60.6925 126.34 60.7492 126.095 60.8625 125.885C60.9759 125.672 61.1309 125.507 61.3275 125.39C61.5275 125.273 61.7492 125.215 61.9925 125.215ZM63.0125 126.625C63.0125 126.418 62.9709 126.238 62.8875 126.085C62.8042 125.932 62.6909 125.815 62.5475 125.735C62.4075 125.652 62.2525 125.61 62.0825 125.61C61.9125 125.61 61.7575 125.65 61.6175 125.73C61.4775 125.81 61.3659 125.927 61.2825 126.08C61.1992 126.233 61.1575 126.413 61.1575 126.62C61.1575 126.83 61.1992 127.013 61.2825 127.17C61.3659 127.323 61.4775 127.442 61.6175 127.525C61.7575 127.605 61.9125 127.645 62.0825 127.645C62.2525 127.645 62.4075 127.605 62.5475 127.525C62.6909 127.442 62.8042 127.323 62.8875 127.17C62.9709 127.013 63.0125 126.832 63.0125 126.625ZM64.0564 127.195V126.85L65.8114 124.42H66.3564V126.8H66.8564V127.195H66.3564V128H65.9064V127.195H64.0564ZM65.9264 124.895L64.5814 126.8H65.9264V124.895ZM67.301 125.295C67.3243 124.988 67.4426 124.748 67.656 124.575C67.8693 124.402 68.146 124.315 68.486 124.315C68.7126 124.315 68.9076 124.357 69.071 124.44C69.2376 124.52 69.3626 124.63 69.446 124.77C69.5326 124.91 69.576 125.068 69.576 125.245C69.576 125.452 69.516 125.63 69.396 125.78C69.2793 125.93 69.126 126.027 68.936 126.07V126.095C69.1526 126.148 69.3243 126.253 69.451 126.41C69.5776 126.567 69.641 126.772 69.641 127.025C69.641 127.215 69.5976 127.387 69.511 127.54C69.4243 127.69 69.2943 127.808 69.121 127.895C68.9476 127.982 68.7393 128.025 68.496 128.025C68.1426 128.025 67.8526 127.933 67.626 127.75C67.3993 127.563 67.2726 127.3 67.246 126.96H67.686C67.7093 127.16 67.791 127.323 67.931 127.45C68.071 127.577 68.2576 127.64 68.491 127.64C68.7243 127.64 68.901 127.58 69.021 127.46C69.1443 127.337 69.206 127.178 69.206 126.985C69.206 126.735 69.1226 126.555 68.956 126.445C68.7893 126.335 68.5376 126.28 68.201 126.28H68.086V125.9H68.206C68.5126 125.897 68.7443 125.847 68.901 125.75C69.0576 125.65 69.136 125.497 69.136 125.29C69.136 125.113 69.0776 124.972 68.961 124.865C68.8476 124.758 68.6843 124.705 68.471 124.705C68.2643 124.705 68.0976 124.758 67.971 124.865C67.8443 124.972 67.7693 125.115 67.746 125.295H67.301ZM71.3503 127.58L72.2003 125.26H72.6853L71.6103 128H71.0803L70.0053 125.26H70.4953L71.3503 127.58ZM74.248 125.635H73.673V128H73.218V125.635H72.863V125.26H73.218V125.065C73.218 124.758 73.2964 124.535 73.453 124.395C73.613 124.252 73.868 124.18 74.218 124.18V124.56C74.018 124.56 73.8764 124.6 73.793 124.68C73.713 124.757 73.673 124.885 73.673 125.065V125.26H74.248V125.635ZM75.9086 125.215C76.1452 125.215 76.3519 125.267 76.5286 125.37C76.7086 125.473 76.8419 125.603 76.9286 125.76V125.26H77.3886V128.06C77.3886 128.31 77.3352 128.532 77.2286 128.725C77.1219 128.922 76.9686 129.075 76.7686 129.185C76.5719 129.295 76.3419 129.35 76.0786 129.35C75.7186 129.35 75.4186 129.265 75.1786 129.095C74.9386 128.925 74.7969 128.693 74.7536 128.4H75.2036C75.2536 128.567 75.3569 128.7 75.5136 128.8C75.6702 128.903 75.8586 128.955 76.0786 128.955C76.3286 128.955 76.5319 128.877 76.6886 128.72C76.8486 128.563 76.9286 128.343 76.9286 128.06V127.485C76.8386 127.645 76.7052 127.778 76.5286 127.885C76.3519 127.992 76.1452 128.045 75.9086 128.045C75.6652 128.045 75.4436 127.985 75.2436 127.865C75.0469 127.745 74.8919 127.577 74.7786 127.36C74.6652 127.143 74.6086 126.897 74.6086 126.62C74.6086 126.34 74.6652 126.095 74.7786 125.885C74.8919 125.672 75.0469 125.507 75.2436 125.39C75.4436 125.273 75.6652 125.215 75.9086 125.215ZM76.9286 126.625C76.9286 126.418 76.8869 126.238 76.8036 126.085C76.7202 125.932 76.6069 125.815 76.4636 125.735C76.3236 125.652 76.1686 125.61 75.9986 125.61C75.8286 125.61 75.6736 125.65 75.5336 125.73C75.3936 125.81 75.2819 125.927 75.1986 126.08C75.1152 126.233 75.0736 126.413 75.0736 126.62C75.0736 126.83 75.1152 127.013 75.1986 127.17C75.2819 127.323 75.3936 127.442 75.5336 127.525C75.6736 127.605 75.8286 127.645 75.9986 127.645C76.1686 127.645 76.3236 127.605 76.4636 127.525C76.6069 127.442 76.7202 127.323 76.8036 127.17C76.8869 127.013 76.9286 126.832 76.9286 126.625ZM51.679 137.894C52.127 137.521 52.484 137.21 52.75 136.963C53.016 136.711 53.2377 136.45 53.415 136.179C53.5923 135.908 53.681 135.642 53.681 135.381C53.681 135.143 53.625 134.956 53.513 134.821C53.401 134.686 53.2283 134.618 52.995 134.618C52.7617 134.618 52.582 134.697 52.456 134.856C52.33 135.01 52.2647 135.222 52.26 135.493H51.308C51.3267 134.933 51.4923 134.508 51.805 134.219C52.1223 133.93 52.5237 133.785 53.009 133.785C53.541 133.785 53.9493 133.927 54.234 134.212C54.5187 134.492 54.661 134.863 54.661 135.325C54.661 135.689 54.563 136.037 54.367 136.368C54.171 136.699 53.947 136.989 53.695 137.236C53.443 137.479 53.114 137.773 52.708 138.118H54.773V138.93H51.315V138.202L51.679 137.894ZM55.6985 137.894C56.1465 137.521 56.5035 137.21 56.7695 136.963C57.0355 136.711 57.2572 136.45 57.4345 136.179C57.6119 135.908 57.7005 135.642 57.7005 135.381C57.7005 135.143 57.6445 134.956 57.5325 134.821C57.4205 134.686 57.2479 134.618 57.0145 134.618C56.7812 134.618 56.6015 134.697 56.4755 134.856C56.3495 135.01 56.2842 135.222 56.2795 135.493H55.3275C55.3462 134.933 55.5119 134.508 55.8245 134.219C56.1419 133.93 56.5432 133.785 57.0285 133.785C57.5605 133.785 57.9689 133.927 58.2535 134.212C58.5382 134.492 58.6805 134.863 58.6805 135.325C58.6805 135.689 58.5825 136.037 58.3865 136.368C58.1905 136.699 57.9665 136.989 57.7145 137.236C57.4625 137.479 57.1335 137.773 56.7275 138.118H58.7925V138.93H55.3345V138.202L55.6985 137.894ZM62.1471 132.371L60.2571 140.267H59.2981L61.1881 132.371H62.1471ZM62.8144 136.382C62.8144 135.575 62.959 134.942 63.2484 134.485C63.5424 134.028 64.0277 133.799 64.7044 133.799C65.381 133.799 65.864 134.028 66.1534 134.485C66.4474 134.942 66.5944 135.575 66.5944 136.382C66.5944 137.194 66.4474 137.831 66.1534 138.293C65.864 138.755 65.381 138.986 64.7044 138.986C64.0277 138.986 63.5424 138.755 63.2484 138.293C62.959 137.831 62.8144 137.194 62.8144 136.382ZM65.6284 136.382C65.6284 136.037 65.605 135.747 65.5584 135.514C65.5164 135.276 65.4277 135.082 65.2924 134.933C65.1617 134.784 64.9657 134.709 64.7044 134.709C64.443 134.709 64.2447 134.784 64.1094 134.933C63.9787 135.082 63.89 135.276 63.8434 135.514C63.8014 135.747 63.7804 136.037 63.7804 136.382C63.7804 136.737 63.8014 137.035 63.8434 137.278C63.8854 137.516 63.974 137.71 64.1094 137.859C64.2447 138.004 64.443 138.076 64.7044 138.076C64.9657 138.076 65.164 138.004 65.2994 137.859C65.4347 137.71 65.5234 137.516 65.5654 137.278C65.6074 137.035 65.6284 136.737 65.6284 136.382ZM70.5878 134.639L68.7258 139H67.7318L69.6078 134.751H67.2138V133.911H70.5878V134.639ZM73.9117 132.371L72.0217 140.267H71.0627L72.9527 132.371H73.9117ZM74.887 137.894C75.335 137.521 75.692 137.21 75.958 136.963C76.224 136.711 76.4457 136.45 76.623 136.179C76.8003 135.908 76.889 135.642 76.889 135.381C76.889 135.143 76.833 134.956 76.721 134.821C76.609 134.686 76.4363 134.618 76.203 134.618C75.9697 134.618 75.79 134.697 75.664 134.856C75.538 135.01 75.4727 135.222 75.468 135.493H74.516C74.5347 134.933 74.7003 134.508 75.013 134.219C75.3303 133.93 75.7317 133.785 76.217 133.785C76.749 133.785 77.1573 133.927 77.442 134.212C77.7267 134.492 77.869 134.863 77.869 135.325C77.869 135.689 77.771 136.037 77.575 136.368C77.379 136.699 77.155 136.989 76.903 137.236C76.651 137.479 76.322 137.773 75.916 138.118H77.981V138.93H74.523V138.202L74.887 137.894ZM78.5985 136.382C78.5985 135.575 78.7432 134.942 79.0325 134.485C79.3265 134.028 79.8119 133.799 80.4885 133.799C81.1652 133.799 81.6482 134.028 81.9375 134.485C82.2315 134.942 82.3785 135.575 82.3785 136.382C82.3785 137.194 82.2315 137.831 81.9375 138.293C81.6482 138.755 81.1652 138.986 80.4885 138.986C79.8119 138.986 79.3265 138.755 79.0325 138.293C78.7432 137.831 78.5985 137.194 78.5985 136.382ZM81.4125 136.382C81.4125 136.037 81.3892 135.747 81.3425 135.514C81.3005 135.276 81.2119 135.082 81.0765 134.933C80.9459 134.784 80.7499 134.709 80.4885 134.709C80.2272 134.709 80.0289 134.784 79.8935 134.933C79.7629 135.082 79.6742 135.276 79.6275 135.514C79.5855 135.747 79.5645 136.037 79.5645 136.382C79.5645 136.737 79.5855 137.035 79.6275 137.278C79.6695 137.516 79.7582 137.71 79.8935 137.859C80.0289 138.004 80.2272 138.076 80.4885 138.076C80.7499 138.076 80.9482 138.004 81.0835 137.859C81.2189 137.71 81.3075 137.516 81.3495 137.278C81.3915 137.035 81.4125 136.737 81.4125 136.382ZM83.4319 137.894C83.8799 137.521 84.2369 137.21 84.5029 136.963C84.7689 136.711 84.9906 136.45 85.1679 136.179C85.3453 135.908 85.4339 135.642 85.4339 135.381C85.4339 135.143 85.3779 134.956 85.2659 134.821C85.1539 134.686 84.9813 134.618 84.7479 134.618C84.5146 134.618 84.3349 134.697 84.2089 134.856C84.0829 135.01 84.0176 135.222 84.0129 135.493H83.0609C83.0796 134.933 83.2453 134.508 83.5579 134.219C83.8753 133.93 84.2766 133.785 84.7619 133.785C85.2939 133.785 85.7023 133.927 85.9869 134.212C86.2716 134.492 86.4139 134.863 86.4139 135.325C86.4139 135.689 86.3159 136.037 86.1199 136.368C85.9239 136.699 85.6999 136.989 85.4479 137.236C85.1959 137.479 84.8669 137.773 84.4609 138.118H86.5259V138.93H83.0679V138.202L83.4319 137.894ZM87.4515 137.894C87.8995 137.521 88.2565 137.21 88.5225 136.963C88.7885 136.711 89.0101 136.45 89.1875 136.179C89.3648 135.908 89.4535 135.642 89.4535 135.381C89.4535 135.143 89.3975 134.956 89.2855 134.821C89.1735 134.686 89.0008 134.618 88.7675 134.618C88.5341 134.618 88.3545 134.697 88.2285 134.856C88.1025 135.01 88.0371 135.222 88.0325 135.493H87.0805C87.0991 134.933 87.2648 134.508 87.5775 134.219C87.8948 133.93 88.2961 133.785 88.7815 133.785C89.3135 133.785 89.7218 133.927 90.0065 134.212C90.2911 134.492 90.4335 134.863 90.4335 135.325C90.4335 135.689 90.3355 136.037 90.1395 136.368C89.9435 136.699 89.7195 136.989 89.4675 137.236C89.2155 137.479 88.8865 137.773 88.4805 138.118H90.5455V138.93H87.0875V138.202L87.4515 137.894Z" fill="#3C8AFF"/>
<path d="M194.84 79.515V83H194.385V79.515H194.84ZM196.7 79.515C197.08 79.515 197.409 79.5867 197.685 79.73C197.965 79.87 198.179 80.0717 198.325 80.335C198.475 80.5983 198.55 80.9083 198.55 81.265C198.55 81.6217 198.475 81.9317 198.325 82.195C198.179 82.455 197.965 82.655 197.685 82.795C197.409 82.9317 197.08 83 196.7 83H195.615V79.515H196.7ZM196.7 82.625C197.15 82.625 197.494 82.5067 197.73 82.27C197.967 82.03 198.085 81.695 198.085 81.265C198.085 80.8317 197.965 80.4933 197.725 80.25C197.489 80.0067 197.147 79.885 196.7 79.885H196.07V82.625H196.7ZM200.314 81.62C200.314 81.34 200.37 81.095 200.484 80.885C200.597 80.6717 200.752 80.5067 200.949 80.39C201.149 80.2733 201.37 80.215 201.614 80.215C201.854 80.215 202.062 80.2667 202.239 80.37C202.415 80.4733 202.547 80.6033 202.634 80.76V80.26H203.094V83H202.634V82.49C202.544 82.65 202.409 82.7833 202.229 82.89C202.052 82.9933 201.845 83.045 201.609 83.045C201.365 83.045 201.145 82.985 200.949 82.865C200.752 82.745 200.597 82.5767 200.484 82.36C200.37 82.1433 200.314 81.8967 200.314 81.62ZM202.634 81.625C202.634 81.4183 202.592 81.2383 202.509 81.085C202.425 80.9317 202.312 80.815 202.169 80.735C202.029 80.6517 201.874 80.61 201.704 80.61C201.534 80.61 201.379 80.65 201.239 80.73C201.099 80.81 200.987 80.9267 200.904 81.08C200.82 81.2333 200.779 81.4133 200.779 81.62C200.779 81.83 200.82 82.0133 200.904 82.17C200.987 82.3233 201.099 82.4417 201.239 82.525C201.379 82.605 201.534 82.645 201.704 82.645C201.874 82.645 202.029 82.605 202.169 82.525C202.312 82.4417 202.425 82.3233 202.509 82.17C202.592 82.0133 202.634 81.8317 202.634 81.625ZM204.993 80.215C205.229 80.215 205.436 80.2667 205.613 80.37C205.793 80.4733 205.926 80.6033 206.013 80.76V80.26H206.473V83.06C206.473 83.31 206.419 83.5317 206.313 83.725C206.206 83.9217 206.053 84.075 205.853 84.185C205.656 84.295 205.426 84.35 205.163 84.35C204.803 84.35 204.503 84.265 204.263 84.095C204.023 83.925 203.881 83.6933 203.838 83.4H204.288C204.338 83.5667 204.441 83.7 204.598 83.8C204.754 83.9033 204.943 83.955 205.163 83.955C205.413 83.955 205.616 83.8767 205.773 83.72C205.933 83.5633 206.013 83.3433 206.013 83.06V82.485C205.923 82.645 205.789 82.7783 205.613 82.885C205.436 82.9917 205.229 83.045 204.993 83.045C204.749 83.045 204.528 82.985 204.328 82.865C204.131 82.745 203.976 82.5767 203.863 82.36C203.749 82.1433 203.693 81.8967 203.693 81.62C203.693 81.34 203.749 81.095 203.863 80.885C203.976 80.6717 204.131 80.5067 204.328 80.39C204.528 80.2733 204.749 80.215 204.993 80.215ZM206.013 81.625C206.013 81.4183 205.971 81.2383 205.888 81.085C205.804 80.9317 205.691 80.815 205.548 80.735C205.408 80.6517 205.253 80.61 205.083 80.61C204.913 80.61 204.758 80.65 204.618 80.73C204.478 80.81 204.366 80.9267 204.283 81.08C204.199 81.2333 204.158 81.4133 204.158 81.62C204.158 81.83 204.199 82.0133 204.283 82.17C204.366 82.3233 204.478 82.4417 204.618 82.525C204.758 82.605 204.913 82.645 205.083 82.645C205.253 82.645 205.408 82.605 205.548 82.525C205.691 82.4417 205.804 82.3233 205.888 82.17C205.971 82.0133 206.013 81.8317 206.013 81.625ZM207.056 82.195V81.85L208.811 79.42H209.356V81.8H209.856V82.195H209.356V83H208.906V82.195H207.056ZM208.926 79.895L207.581 81.8H208.926V79.895ZM210.301 80.295C210.324 79.9883 210.443 79.7483 210.656 79.575C210.869 79.4017 211.146 79.315 211.486 79.315C211.713 79.315 211.908 79.3567 212.071 79.44C212.238 79.52 212.363 79.63 212.446 79.77C212.533 79.91 212.576 80.0683 212.576 80.245C212.576 80.4517 212.516 80.63 212.396 80.78C212.279 80.93 212.126 81.0267 211.936 81.07V81.095C212.153 81.1483 212.324 81.2533 212.451 81.41C212.578 81.5667 212.641 81.7717 212.641 82.025C212.641 82.215 212.598 82.3867 212.511 82.54C212.424 82.69 212.294 82.8083 212.121 82.895C211.948 82.9817 211.739 83.025 211.496 83.025C211.143 83.025 210.853 82.9333 210.626 82.75C210.399 82.5633 210.273 82.3 210.246 81.96H210.686C210.709 82.16 210.791 82.3233 210.931 82.45C211.071 82.5767 211.258 82.64 211.491 82.64C211.724 82.64 211.901 82.58 212.021 82.46C212.144 82.3367 212.206 82.1783 212.206 81.985C212.206 81.735 212.123 81.555 211.956 81.445C211.789 81.335 211.538 81.28 211.201 81.28H211.086V80.9H211.206C211.513 80.8967 211.744 80.8467 211.901 80.75C212.058 80.65 212.136 80.4967 212.136 80.29C212.136 80.1133 212.078 79.9717 211.961 79.865C211.848 79.7583 211.684 79.705 211.471 79.705C211.264 79.705 211.098 79.7583 210.971 79.865C210.844 79.9717 210.769 80.115 210.746 80.295H210.301ZM214.35 82.58L215.2 80.26H215.685L214.61 83H214.08L213.005 80.26H213.495L214.35 82.58ZM217.248 80.635H216.673V83H216.218V80.635H215.863V80.26H216.218V80.065C216.218 79.7583 216.296 79.535 216.453 79.395C216.613 79.2517 216.868 79.18 217.218 79.18V79.56C217.018 79.56 216.876 79.6 216.793 79.68C216.713 79.7567 216.673 79.885 216.673 80.065V80.26H217.248V80.635ZM218.909 80.215C219.145 80.215 219.352 80.2667 219.529 80.37C219.709 80.4733 219.842 80.6033 219.929 80.76V80.26H220.389V83.06C220.389 83.31 220.335 83.5317 220.229 83.725C220.122 83.9217 219.969 84.075 219.769 84.185C219.572 84.295 219.342 84.35 219.079 84.35C218.719 84.35 218.419 84.265 218.179 84.095C217.939 83.925 217.797 83.6933 217.754 83.4H218.204C218.254 83.5667 218.357 83.7 218.514 83.8C218.67 83.9033 218.859 83.955 219.079 83.955C219.329 83.955 219.532 83.8767 219.689 83.72C219.849 83.5633 219.929 83.3433 219.929 83.06V82.485C219.839 82.645 219.705 82.7783 219.529 82.885C219.352 82.9917 219.145 83.045 218.909 83.045C218.665 83.045 218.444 82.985 218.244 82.865C218.047 82.745 217.892 82.5767 217.779 82.36C217.665 82.1433 217.609 81.8967 217.609 81.62C217.609 81.34 217.665 81.095 217.779 80.885C217.892 80.6717 218.047 80.5067 218.244 80.39C218.444 80.2733 218.665 80.215 218.909 80.215ZM219.929 81.625C219.929 81.4183 219.887 81.2383 219.804 81.085C219.72 80.9317 219.607 80.815 219.464 80.735C219.324 80.6517 219.169 80.61 218.999 80.61C218.829 80.61 218.674 80.65 218.534 80.73C218.394 80.81 218.282 80.9267 218.199 81.08C218.115 81.2333 218.074 81.4133 218.074 81.62C218.074 81.83 218.115 82.0133 218.199 82.17C218.282 82.3233 218.394 82.4417 218.534 82.525C218.674 82.605 218.829 82.645 218.999 82.645C219.169 82.645 219.324 82.605 219.464 82.525C219.607 82.4417 219.72 82.3233 219.804 82.17C219.887 82.0133 219.929 81.8317 219.929 81.625ZM194.679 92.894C195.127 92.5207 195.484 92.2103 195.75 91.963C196.016 91.711 196.238 91.4497 196.415 91.179C196.592 90.9083 196.681 90.6423 196.681 90.381C196.681 90.143 196.625 89.9563 196.513 89.821C196.401 89.6857 196.228 89.618 195.995 89.618C195.762 89.618 195.582 89.6973 195.456 89.856C195.33 90.01 195.265 90.2223 195.26 90.493H194.308C194.327 89.933 194.492 89.5083 194.805 89.219C195.122 88.9297 195.524 88.785 196.009 88.785C196.541 88.785 196.949 88.9273 197.234 89.212C197.519 89.492 197.661 89.863 197.661 90.325C197.661 90.689 197.563 91.0367 197.367 91.368C197.171 91.6993 196.947 91.9887 196.695 92.236C196.443 92.4787 196.114 92.7727 195.708 93.118H197.773V93.93H194.315V93.202L194.679 92.894ZM198.699 92.894C199.147 92.5207 199.504 92.2103 199.77 91.963C200.036 91.711 200.257 91.4497 200.435 91.179C200.612 90.9083 200.701 90.6423 200.701 90.381C200.701 90.143 200.645 89.9563 200.533 89.821C200.421 89.6857 200.248 89.618 200.015 89.618C199.781 89.618 199.602 89.6973 199.476 89.856C199.35 90.01 199.284 90.2223 199.28 90.493H198.328C198.346 89.933 198.512 89.5083 198.825 89.219C199.142 88.9297 199.543 88.785 200.029 88.785C200.561 88.785 200.969 88.9273 201.254 89.212C201.538 89.492 201.681 89.863 201.681 90.325C201.681 90.689 201.583 91.0367 201.387 91.368C201.191 91.6993 200.967 91.9887 200.715 92.236C200.463 92.4787 200.134 92.7727 199.728 93.118H201.793V93.93H198.335V93.202L198.699 92.894ZM205.147 87.371L203.257 95.267H202.298L204.188 87.371H205.147ZM205.814 91.382C205.814 90.5747 205.959 89.9423 206.248 89.485C206.542 89.0277 207.028 88.799 207.704 88.799C208.381 88.799 208.864 89.0277 209.153 89.485C209.447 89.9423 209.594 90.5747 209.594 91.382C209.594 92.194 209.447 92.831 209.153 93.293C208.864 93.755 208.381 93.986 207.704 93.986C207.028 93.986 206.542 93.755 206.248 93.293C205.959 92.831 205.814 92.194 205.814 91.382ZM208.628 91.382C208.628 91.0367 208.605 90.7473 208.558 90.514C208.516 90.276 208.428 90.0823 208.292 89.933C208.162 89.7837 207.966 89.709 207.704 89.709C207.443 89.709 207.245 89.7837 207.109 89.933C206.979 90.0823 206.89 90.276 206.843 90.514C206.801 90.7473 206.78 91.0367 206.78 91.382C206.78 91.7367 206.801 92.0353 206.843 92.278C206.885 92.516 206.974 92.7097 207.109 92.859C207.245 93.0037 207.443 93.076 207.704 93.076C207.966 93.076 208.164 93.0037 208.299 92.859C208.435 92.7097 208.523 92.516 208.565 92.278C208.607 92.0353 208.628 91.7367 208.628 91.382ZM213.588 89.639L211.726 94H210.732L212.608 89.751H210.214V88.911H213.588V89.639ZM216.912 87.371L215.022 95.267H214.063L215.953 87.371H216.912ZM217.887 92.894C218.335 92.5207 218.692 92.2103 218.958 91.963C219.224 91.711 219.446 91.4497 219.623 91.179C219.8 90.9083 219.889 90.6423 219.889 90.381C219.889 90.143 219.833 89.9563 219.721 89.821C219.609 89.6857 219.436 89.618 219.203 89.618C218.97 89.618 218.79 89.6973 218.664 89.856C218.538 90.01 218.473 90.2223 218.468 90.493H217.516C217.535 89.933 217.7 89.5083 218.013 89.219C218.33 88.9297 218.732 88.785 219.217 88.785C219.749 88.785 220.157 88.9273 220.442 89.212C220.727 89.492 220.869 89.863 220.869 90.325C220.869 90.689 220.771 91.0367 220.575 91.368C220.379 91.6993 220.155 91.9887 219.903 92.236C219.651 92.4787 219.322 92.7727 218.916 93.118H220.981V93.93H217.523V93.202L217.887 92.894ZM221.599 91.382C221.599 90.5747 221.743 89.9423 222.033 89.485C222.327 89.0277 222.812 88.799 223.489 88.799C224.165 88.799 224.648 89.0277 224.938 89.485C225.232 89.9423 225.379 90.5747 225.379 91.382C225.379 92.194 225.232 92.831 224.938 93.293C224.648 93.755 224.165 93.986 223.489 93.986C222.812 93.986 222.327 93.755 222.033 93.293C221.743 92.831 221.599 92.194 221.599 91.382ZM224.413 91.382C224.413 91.0367 224.389 90.7473 224.343 90.514C224.301 90.276 224.212 90.0823 224.077 89.933C223.946 89.7837 223.75 89.709 223.489 89.709C223.227 89.709 223.029 89.7837 222.894 89.933C222.763 90.0823 222.674 90.276 222.628 90.514C222.586 90.7473 222.565 91.0367 222.565 91.382C222.565 91.7367 222.586 92.0353 222.628 92.278C222.67 92.516 222.758 92.7097 222.894 92.859C223.029 93.0037 223.227 93.076 223.489 93.076C223.75 93.076 223.948 93.0037 224.084 92.859C224.219 92.7097 224.308 92.516 224.35 92.278C224.392 92.0353 224.413 91.7367 224.413 91.382ZM226.432 92.894C226.88 92.5207 227.237 92.2103 227.503 91.963C227.769 91.711 227.991 91.4497 228.168 91.179C228.345 90.9083 228.434 90.6423 228.434 90.381C228.434 90.143 228.378 89.9563 228.266 89.821C228.154 89.6857 227.981 89.618 227.748 89.618C227.515 89.618 227.335 89.6973 227.209 89.856C227.083 90.01 227.018 90.2223 227.013 90.493H226.061C226.08 89.933 226.245 89.5083 226.558 89.219C226.875 88.9297 227.277 88.785 227.762 88.785C228.294 88.785 228.702 88.9273 228.987 89.212C229.272 89.492 229.414 89.863 229.414 90.325C229.414 90.689 229.316 91.0367 229.12 91.368C228.924 91.6993 228.7 91.9887 228.448 92.236C228.196 92.4787 227.867 92.7727 227.461 93.118H229.526V93.93H226.068V93.202L226.432 92.894ZM230.451 92.894C230.899 92.5207 231.256 92.2103 231.522 91.963C231.788 91.711 232.01 91.4497 232.187 91.179C232.365 90.9083 232.453 90.6423 232.453 90.381C232.453 90.143 232.397 89.9563 232.285 89.821C232.173 89.6857 232.001 89.618 231.767 89.618C231.534 89.618 231.354 89.6973 231.228 89.856C231.102 90.01 231.037 90.2223 231.032 90.493H230.08C230.099 89.933 230.265 89.5083 230.577 89.219C230.895 88.9297 231.296 88.785 231.781 88.785C232.313 88.785 232.722 88.9273 233.006 89.212C233.291 89.492 233.433 89.863 233.433 90.325C233.433 90.689 233.335 91.0367 233.139 91.368C232.943 91.6993 232.719 91.9887 232.467 92.236C232.215 92.4787 231.886 92.7727 231.48 93.118H233.545V93.93H230.087V93.202L230.451 92.894Z" fill="#3C8AFF"/>
<path d="M265.84 98.515V102H265.385V98.515H265.84ZM267.7 98.515C268.08 98.515 268.409 98.5867 268.685 98.73C268.965 98.87 269.179 99.0717 269.325 99.335C269.475 99.5983 269.55 99.9083 269.55 100.265C269.55 100.622 269.475 100.932 269.325 101.195C269.179 101.455 268.965 101.655 268.685 101.795C268.409 101.932 268.08 102 267.7 102H266.615V98.515H267.7ZM267.7 101.625C268.15 101.625 268.494 101.507 268.73 101.27C268.967 101.03 269.085 100.695 269.085 100.265C269.085 99.8317 268.965 99.4933 268.725 99.25C268.489 99.0067 268.147 98.885 267.7 98.885H267.07V101.625H267.7ZM271.314 100.62C271.314 100.34 271.37 100.095 271.484 99.885C271.597 99.6717 271.752 99.5067 271.949 99.39C272.149 99.2733 272.37 99.215 272.614 99.215C272.854 99.215 273.062 99.2667 273.239 99.37C273.415 99.4733 273.547 99.6033 273.634 99.76V99.26H274.094V102H273.634V101.49C273.544 101.65 273.409 101.783 273.229 101.89C273.052 101.993 272.845 102.045 272.609 102.045C272.365 102.045 272.145 101.985 271.949 101.865C271.752 101.745 271.597 101.577 271.484 101.36C271.37 101.143 271.314 100.897 271.314 100.62ZM273.634 100.625C273.634 100.418 273.592 100.238 273.509 100.085C273.425 99.9317 273.312 99.815 273.169 99.735C273.029 99.6517 272.874 99.61 272.704 99.61C272.534 99.61 272.379 99.65 272.239 99.73C272.099 99.81 271.987 99.9267 271.904 100.08C271.82 100.233 271.779 100.413 271.779 100.62C271.779 100.83 271.82 101.013 271.904 101.17C271.987 101.323 272.099 101.442 272.239 101.525C272.379 101.605 272.534 101.645 272.704 101.645C272.874 101.645 273.029 101.605 273.169 101.525C273.312 101.442 273.425 101.323 273.509 101.17C273.592 101.013 273.634 100.832 273.634 100.625ZM275.993 99.215C276.229 99.215 276.436 99.2667 276.613 99.37C276.793 99.4733 276.926 99.6033 277.013 99.76V99.26H277.473V102.06C277.473 102.31 277.419 102.532 277.313 102.725C277.206 102.922 277.053 103.075 276.853 103.185C276.656 103.295 276.426 103.35 276.163 103.35C275.803 103.35 275.503 103.265 275.263 103.095C275.023 102.925 274.881 102.693 274.838 102.4H275.288C275.338 102.567 275.441 102.7 275.598 102.8C275.754 102.903 275.943 102.955 276.163 102.955C276.413 102.955 276.616 102.877 276.773 102.72C276.933 102.563 277.013 102.343 277.013 102.06V101.485C276.923 101.645 276.789 101.778 276.613 101.885C276.436 101.992 276.229 102.045 275.993 102.045C275.749 102.045 275.528 101.985 275.328 101.865C275.131 101.745 274.976 101.577 274.863 101.36C274.749 101.143 274.693 100.897 274.693 100.62C274.693 100.34 274.749 100.095 274.863 99.885C274.976 99.6717 275.131 99.5067 275.328 99.39C275.528 99.2733 275.749 99.215 275.993 99.215ZM277.013 100.625C277.013 100.418 276.971 100.238 276.888 100.085C276.804 99.9317 276.691 99.815 276.548 99.735C276.408 99.6517 276.253 99.61 276.083 99.61C275.913 99.61 275.758 99.65 275.618 99.73C275.478 99.81 275.366 99.9267 275.283 100.08C275.199 100.233 275.158 100.413 275.158 100.62C275.158 100.83 275.199 101.013 275.283 101.17C275.366 101.323 275.478 101.442 275.618 101.525C275.758 101.605 275.913 101.645 276.083 101.645C276.253 101.645 276.408 101.605 276.548 101.525C276.691 101.442 276.804 101.323 276.888 101.17C276.971 101.013 277.013 100.832 277.013 100.625ZM278.056 101.195V100.85L279.811 98.42H280.356V100.8H280.856V101.195H280.356V102H279.906V101.195H278.056ZM279.926 98.895L278.581 100.8H279.926V98.895ZM281.301 99.295C281.324 98.9883 281.443 98.7483 281.656 98.575C281.869 98.4017 282.146 98.315 282.486 98.315C282.713 98.315 282.908 98.3567 283.071 98.44C283.238 98.52 283.363 98.63 283.446 98.77C283.533 98.91 283.576 99.0683 283.576 99.245C283.576 99.4517 283.516 99.63 283.396 99.78C283.279 99.93 283.126 100.027 282.936 100.07V100.095C283.153 100.148 283.324 100.253 283.451 100.41C283.578 100.567 283.641 100.772 283.641 101.025C283.641 101.215 283.598 101.387 283.511 101.54C283.424 101.69 283.294 101.808 283.121 101.895C282.948 101.982 282.739 102.025 282.496 102.025C282.143 102.025 281.853 101.933 281.626 101.75C281.399 101.563 281.273 101.3 281.246 100.96H281.686C281.709 101.16 281.791 101.323 281.931 101.45C282.071 101.577 282.258 101.64 282.491 101.64C282.724 101.64 282.901 101.58 283.021 101.46C283.144 101.337 283.206 101.178 283.206 100.985C283.206 100.735 283.123 100.555 282.956 100.445C282.789 100.335 282.538 100.28 282.201 100.28H282.086V99.9H282.206C282.513 99.8967 282.744 99.8467 282.901 99.75C283.058 99.65 283.136 99.4967 283.136 99.29C283.136 99.1133 283.078 98.9717 282.961 98.865C282.848 98.7583 282.684 98.705 282.471 98.705C282.264 98.705 282.098 98.7583 281.971 98.865C281.844 98.9717 281.769 99.115 281.746 99.295H281.301ZM285.35 101.58L286.2 99.26H286.685L285.61 102H285.08L284.005 99.26H284.495L285.35 101.58ZM288.248 99.635H287.673V102H287.218V99.635H286.863V99.26H287.218V99.065C287.218 98.7583 287.296 98.535 287.453 98.395C287.613 98.2517 287.868 98.18 288.218 98.18V98.56C288.018 98.56 287.876 98.6 287.793 98.68C287.713 98.7567 287.673 98.885 287.673 99.065V99.26H288.248V99.635ZM289.909 99.215C290.145 99.215 290.352 99.2667 290.529 99.37C290.709 99.4733 290.842 99.6033 290.929 99.76V99.26H291.389V102.06C291.389 102.31 291.335 102.532 291.229 102.725C291.122 102.922 290.969 103.075 290.769 103.185C290.572 103.295 290.342 103.35 290.079 103.35C289.719 103.35 289.419 103.265 289.179 103.095C288.939 102.925 288.797 102.693 288.754 102.4H289.204C289.254 102.567 289.357 102.7 289.514 102.8C289.67 102.903 289.859 102.955 290.079 102.955C290.329 102.955 290.532 102.877 290.689 102.72C290.849 102.563 290.929 102.343 290.929 102.06V101.485C290.839 101.645 290.705 101.778 290.529 101.885C290.352 101.992 290.145 102.045 289.909 102.045C289.665 102.045 289.444 101.985 289.244 101.865C289.047 101.745 288.892 101.577 288.779 101.36C288.665 101.143 288.609 100.897 288.609 100.62C288.609 100.34 288.665 100.095 288.779 99.885C288.892 99.6717 289.047 99.5067 289.244 99.39C289.444 99.2733 289.665 99.215 289.909 99.215ZM290.929 100.625C290.929 100.418 290.887 100.238 290.804 100.085C290.72 99.9317 290.607 99.815 290.464 99.735C290.324 99.6517 290.169 99.61 289.999 99.61C289.829 99.61 289.674 99.65 289.534 99.73C289.394 99.81 289.282 99.9267 289.199 100.08C289.115 100.233 289.074 100.413 289.074 100.62C289.074 100.83 289.115 101.013 289.199 101.17C289.282 101.323 289.394 101.442 289.534 101.525C289.674 101.605 289.829 101.645 289.999 101.645C290.169 101.645 290.324 101.605 290.464 101.525C290.607 101.442 290.72 101.323 290.804 101.17C290.887 101.013 290.929 100.832 290.929 100.625ZM265.679 111.894C266.127 111.521 266.484 111.21 266.75 110.963C267.016 110.711 267.238 110.45 267.415 110.179C267.592 109.908 267.681 109.642 267.681 109.381C267.681 109.143 267.625 108.956 267.513 108.821C267.401 108.686 267.228 108.618 266.995 108.618C266.762 108.618 266.582 108.697 266.456 108.856C266.33 109.01 266.265 109.222 266.26 109.493H265.308C265.327 108.933 265.492 108.508 265.805 108.219C266.122 107.93 266.524 107.785 267.009 107.785C267.541 107.785 267.949 107.927 268.234 108.212C268.519 108.492 268.661 108.863 268.661 109.325C268.661 109.689 268.563 110.037 268.367 110.368C268.171 110.699 267.947 110.989 267.695 111.236C267.443 111.479 267.114 111.773 266.708 112.118H268.773V112.93H265.315V112.202L265.679 111.894ZM269.699 111.894C270.147 111.521 270.504 111.21 270.77 110.963C271.036 110.711 271.257 110.45 271.435 110.179C271.612 109.908 271.701 109.642 271.701 109.381C271.701 109.143 271.645 108.956 271.533 108.821C271.421 108.686 271.248 108.618 271.015 108.618C270.781 108.618 270.602 108.697 270.476 108.856C270.35 109.01 270.284 109.222 270.28 109.493H269.328C269.346 108.933 269.512 108.508 269.825 108.219C270.142 107.93 270.543 107.785 271.029 107.785C271.561 107.785 271.969 107.927 272.254 108.212C272.538 108.492 272.681 108.863 272.681 109.325C272.681 109.689 272.583 110.037 272.387 110.368C272.191 110.699 271.967 110.989 271.715 111.236C271.463 111.479 271.134 111.773 270.728 112.118H272.793V112.93H269.335V112.202L269.699 111.894ZM276.147 106.371L274.257 114.267H273.298L275.188 106.371H276.147ZM276.814 110.382C276.814 109.575 276.959 108.942 277.248 108.485C277.542 108.028 278.028 107.799 278.704 107.799C279.381 107.799 279.864 108.028 280.153 108.485C280.447 108.942 280.594 109.575 280.594 110.382C280.594 111.194 280.447 111.831 280.153 112.293C279.864 112.755 279.381 112.986 278.704 112.986C278.028 112.986 277.542 112.755 277.248 112.293C276.959 111.831 276.814 111.194 276.814 110.382ZM279.628 110.382C279.628 110.037 279.605 109.747 279.558 109.514C279.516 109.276 279.428 109.082 279.292 108.933C279.162 108.784 278.966 108.709 278.704 108.709C278.443 108.709 278.245 108.784 278.109 108.933C277.979 109.082 277.89 109.276 277.843 109.514C277.801 109.747 277.78 110.037 277.78 110.382C277.78 110.737 277.801 111.035 277.843 111.278C277.885 111.516 277.974 111.71 278.109 111.859C278.245 112.004 278.443 112.076 278.704 112.076C278.966 112.076 279.164 112.004 279.299 111.859C279.435 111.71 279.523 111.516 279.565 111.278C279.607 111.035 279.628 110.737 279.628 110.382ZM284.588 108.639L282.726 113H281.732L283.608 108.751H281.214V107.911H284.588V108.639ZM287.912 106.371L286.022 114.267H285.063L286.953 106.371H287.912ZM288.887 111.894C289.335 111.521 289.692 111.21 289.958 110.963C290.224 110.711 290.446 110.45 290.623 110.179C290.8 109.908 290.889 109.642 290.889 109.381C290.889 109.143 290.833 108.956 290.721 108.821C290.609 108.686 290.436 108.618 290.203 108.618C289.97 108.618 289.79 108.697 289.664 108.856C289.538 109.01 289.473 109.222 289.468 109.493H288.516C288.535 108.933 288.7 108.508 289.013 108.219C289.33 107.93 289.732 107.785 290.217 107.785C290.749 107.785 291.157 107.927 291.442 108.212C291.727 108.492 291.869 108.863 291.869 109.325C291.869 109.689 291.771 110.037 291.575 110.368C291.379 110.699 291.155 110.989 290.903 111.236C290.651 111.479 290.322 111.773 289.916 112.118H291.981V112.93H288.523V112.202L288.887 111.894ZM292.599 110.382C292.599 109.575 292.743 108.942 293.033 108.485C293.327 108.028 293.812 107.799 294.489 107.799C295.165 107.799 295.648 108.028 295.938 108.485C296.232 108.942 296.379 109.575 296.379 110.382C296.379 111.194 296.232 111.831 295.938 112.293C295.648 112.755 295.165 112.986 294.489 112.986C293.812 112.986 293.327 112.755 293.033 112.293C292.743 111.831 292.599 111.194 292.599 110.382ZM295.413 110.382C295.413 110.037 295.389 109.747 295.343 109.514C295.301 109.276 295.212 109.082 295.077 108.933C294.946 108.784 294.75 108.709 294.489 108.709C294.227 108.709 294.029 108.784 293.894 108.933C293.763 109.082 293.674 109.276 293.628 109.514C293.586 109.747 293.565 110.037 293.565 110.382C293.565 110.737 293.586 111.035 293.628 111.278C293.67 111.516 293.758 111.71 293.894 111.859C294.029 112.004 294.227 112.076 294.489 112.076C294.75 112.076 294.948 112.004 295.084 111.859C295.219 111.71 295.308 111.516 295.35 111.278C295.392 111.035 295.413 110.737 295.413 110.382ZM297.432 111.894C297.88 111.521 298.237 111.21 298.503 110.963C298.769 110.711 298.991 110.45 299.168 110.179C299.345 109.908 299.434 109.642 299.434 109.381C299.434 109.143 299.378 108.956 299.266 108.821C299.154 108.686 298.981 108.618 298.748 108.618C298.515 108.618 298.335 108.697 298.209 108.856C298.083 109.01 298.018 109.222 298.013 109.493H297.061C297.08 108.933 297.245 108.508 297.558 108.219C297.875 107.93 298.277 107.785 298.762 107.785C299.294 107.785 299.702 107.927 299.987 108.212C300.272 108.492 300.414 108.863 300.414 109.325C300.414 109.689 300.316 110.037 300.12 110.368C299.924 110.699 299.7 110.989 299.448 111.236C299.196 111.479 298.867 111.773 298.461 112.118H300.526V112.93H297.068V112.202L297.432 111.894ZM301.451 111.894C301.899 111.521 302.256 111.21 302.522 110.963C302.788 110.711 303.01 110.45 303.187 110.179C303.365 109.908 303.453 109.642 303.453 109.381C303.453 109.143 303.397 108.956 303.285 108.821C303.173 108.686 303.001 108.618 302.767 108.618C302.534 108.618 302.354 108.697 302.228 108.856C302.102 109.01 302.037 109.222 302.032 109.493H301.08C301.099 108.933 301.265 108.508 301.577 108.219C301.895 107.93 302.296 107.785 302.781 107.785C303.313 107.785 303.722 107.927 304.006 108.212C304.291 108.492 304.433 108.863 304.433 109.325C304.433 109.689 304.335 110.037 304.139 110.368C303.943 110.699 303.719 110.989 303.467 111.236C303.215 111.479 302.886 111.773 302.48 112.118H304.545V112.93H301.087V112.202L301.451 111.894Z" fill="#3C8AFF"/>
<path d="M393.84 25.515V29H393.385V25.515H393.84ZM395.7 25.515C396.08 25.515 396.409 25.5867 396.685 25.73C396.965 25.87 397.179 26.0717 397.325 26.335C397.475 26.5983 397.55 26.9083 397.55 27.265C397.55 27.6217 397.475 27.9317 397.325 28.195C397.179 28.455 396.965 28.655 396.685 28.795C396.409 28.9317 396.08 29 395.7 29H394.615V25.515H395.7ZM395.7 28.625C396.15 28.625 396.494 28.5067 396.73 28.27C396.967 28.03 397.085 27.695 397.085 27.265C397.085 26.8317 396.965 26.4933 396.725 26.25C396.489 26.0067 396.147 25.885 395.7 25.885H395.07V28.625H395.7ZM399.314 27.62C399.314 27.34 399.37 27.095 399.484 26.885C399.597 26.6717 399.752 26.5067 399.949 26.39C400.149 26.2733 400.37 26.215 400.614 26.215C400.854 26.215 401.062 26.2667 401.239 26.37C401.415 26.4733 401.547 26.6033 401.634 26.76V26.26H402.094V29H401.634V28.49C401.544 28.65 401.409 28.7833 401.229 28.89C401.052 28.9933 400.845 29.045 400.609 29.045C400.365 29.045 400.145 28.985 399.949 28.865C399.752 28.745 399.597 28.5767 399.484 28.36C399.37 28.1433 399.314 27.8967 399.314 27.62ZM401.634 27.625C401.634 27.4183 401.592 27.2383 401.509 27.085C401.425 26.9317 401.312 26.815 401.169 26.735C401.029 26.6517 400.874 26.61 400.704 26.61C400.534 26.61 400.379 26.65 400.239 26.73C400.099 26.81 399.987 26.9267 399.904 27.08C399.82 27.2333 399.779 27.4133 399.779 27.62C399.779 27.83 399.82 28.0133 399.904 28.17C399.987 28.3233 400.099 28.4417 400.239 28.525C400.379 28.605 400.534 28.645 400.704 28.645C400.874 28.645 401.029 28.605 401.169 28.525C401.312 28.4417 401.425 28.3233 401.509 28.17C401.592 28.0133 401.634 27.8317 401.634 27.625ZM403.993 26.215C404.229 26.215 404.436 26.2667 404.613 26.37C404.793 26.4733 404.926 26.6033 405.013 26.76V26.26H405.473V29.06C405.473 29.31 405.419 29.5317 405.313 29.725C405.206 29.9217 405.053 30.075 404.853 30.185C404.656 30.295 404.426 30.35 404.163 30.35C403.803 30.35 403.503 30.265 403.263 30.095C403.023 29.925 402.881 29.6933 402.838 29.4H403.288C403.338 29.5667 403.441 29.7 403.598 29.8C403.754 29.9033 403.943 29.955 404.163 29.955C404.413 29.955 404.616 29.8767 404.773 29.72C404.933 29.5633 405.013 29.3433 405.013 29.06V28.485C404.923 28.645 404.789 28.7783 404.613 28.885C404.436 28.9917 404.229 29.045 403.993 29.045C403.749 29.045 403.528 28.985 403.328 28.865C403.131 28.745 402.976 28.5767 402.863 28.36C402.749 28.1433 402.693 27.8967 402.693 27.62C402.693 27.34 402.749 27.095 402.863 26.885C402.976 26.6717 403.131 26.5067 403.328 26.39C403.528 26.2733 403.749 26.215 403.993 26.215ZM405.013 27.625C405.013 27.4183 404.971 27.2383 404.888 27.085C404.804 26.9317 404.691 26.815 404.548 26.735C404.408 26.6517 404.253 26.61 404.083 26.61C403.913 26.61 403.758 26.65 403.618 26.73C403.478 26.81 403.366 26.9267 403.283 27.08C403.199 27.2333 403.158 27.4133 403.158 27.62C403.158 27.83 403.199 28.0133 403.283 28.17C403.366 28.3233 403.478 28.4417 403.618 28.525C403.758 28.605 403.913 28.645 404.083 28.645C404.253 28.645 404.408 28.605 404.548 28.525C404.691 28.4417 404.804 28.3233 404.888 28.17C404.971 28.0133 405.013 27.8317 405.013 27.625ZM406.056 28.195V27.85L407.811 25.42H408.356V27.8H408.856V28.195H408.356V29H407.906V28.195H406.056ZM407.926 25.895L406.581 27.8H407.926V25.895ZM409.301 26.295C409.324 25.9883 409.443 25.7483 409.656 25.575C409.869 25.4017 410.146 25.315 410.486 25.315C410.713 25.315 410.908 25.3567 411.071 25.44C411.238 25.52 411.363 25.63 411.446 25.77C411.533 25.91 411.576 26.0683 411.576 26.245C411.576 26.4517 411.516 26.63 411.396 26.78C411.279 26.93 411.126 27.0267 410.936 27.07V27.095C411.153 27.1483 411.324 27.2533 411.451 27.41C411.578 27.5667 411.641 27.7717 411.641 28.025C411.641 28.215 411.598 28.3867 411.511 28.54C411.424 28.69 411.294 28.8083 411.121 28.895C410.948 28.9817 410.739 29.025 410.496 29.025C410.143 29.025 409.853 28.9333 409.626 28.75C409.399 28.5633 409.273 28.3 409.246 27.96H409.686C409.709 28.16 409.791 28.3233 409.931 28.45C410.071 28.5767 410.258 28.64 410.491 28.64C410.724 28.64 410.901 28.58 411.021 28.46C411.144 28.3367 411.206 28.1783 411.206 27.985C411.206 27.735 411.123 27.555 410.956 27.445C410.789 27.335 410.538 27.28 410.201 27.28H410.086V26.9H410.206C410.513 26.8967 410.744 26.8467 410.901 26.75C411.058 26.65 411.136 26.4967 411.136 26.29C411.136 26.1133 411.078 25.9717 410.961 25.865C410.848 25.7583 410.684 25.705 410.471 25.705C410.264 25.705 410.098 25.7583 409.971 25.865C409.844 25.9717 409.769 26.115 409.746 26.295H409.301ZM413.35 28.58L414.2 26.26H414.685L413.61 29H413.08L412.005 26.26H412.495L413.35 28.58ZM416.248 26.635H415.673V29H415.218V26.635H414.863V26.26H415.218V26.065C415.218 25.7583 415.296 25.535 415.453 25.395C415.613 25.2517 415.868 25.18 416.218 25.18V25.56C416.018 25.56 415.876 25.6 415.793 25.68C415.713 25.7567 415.673 25.885 415.673 26.065V26.26H416.248V26.635ZM417.909 26.215C418.145 26.215 418.352 26.2667 418.529 26.37C418.709 26.4733 418.842 26.6033 418.929 26.76V26.26H419.389V29.06C419.389 29.31 419.335 29.5317 419.229 29.725C419.122 29.9217 418.969 30.075 418.769 30.185C418.572 30.295 418.342 30.35 418.079 30.35C417.719 30.35 417.419 30.265 417.179 30.095C416.939 29.925 416.797 29.6933 416.754 29.4H417.204C417.254 29.5667 417.357 29.7 417.514 29.8C417.67 29.9033 417.859 29.955 418.079 29.955C418.329 29.955 418.532 29.8767 418.689 29.72C418.849 29.5633 418.929 29.3433 418.929 29.06V28.485C418.839 28.645 418.705 28.7783 418.529 28.885C418.352 28.9917 418.145 29.045 417.909 29.045C417.665 29.045 417.444 28.985 417.244 28.865C417.047 28.745 416.892 28.5767 416.779 28.36C416.665 28.1433 416.609 27.8967 416.609 27.62C416.609 27.34 416.665 27.095 416.779 26.885C416.892 26.6717 417.047 26.5067 417.244 26.39C417.444 26.2733 417.665 26.215 417.909 26.215ZM418.929 27.625C418.929 27.4183 418.887 27.2383 418.804 27.085C418.72 26.9317 418.607 26.815 418.464 26.735C418.324 26.6517 418.169 26.61 417.999 26.61C417.829 26.61 417.674 26.65 417.534 26.73C417.394 26.81 417.282 26.9267 417.199 27.08C417.115 27.2333 417.074 27.4133 417.074 27.62C417.074 27.83 417.115 28.0133 417.199 28.17C417.282 28.3233 417.394 28.4417 417.534 28.525C417.674 28.605 417.829 28.645 417.999 28.645C418.169 28.645 418.324 28.605 418.464 28.525C418.607 28.4417 418.72 28.3233 418.804 28.17C418.887 28.0133 418.929 27.8317 418.929 27.625ZM393.679 38.894C394.127 38.5207 394.484 38.2103 394.75 37.963C395.016 37.711 395.238 37.4497 395.415 37.179C395.592 36.9083 395.681 36.6423 395.681 36.381C395.681 36.143 395.625 35.9563 395.513 35.821C395.401 35.6857 395.228 35.618 394.995 35.618C394.762 35.618 394.582 35.6973 394.456 35.856C394.33 36.01 394.265 36.2223 394.26 36.493H393.308C393.327 35.933 393.492 35.5083 393.805 35.219C394.122 34.9297 394.524 34.785 395.009 34.785C395.541 34.785 395.949 34.9273 396.234 35.212C396.519 35.492 396.661 35.863 396.661 36.325C396.661 36.689 396.563 37.0367 396.367 37.368C396.171 37.6993 395.947 37.9887 395.695 38.236C395.443 38.4787 395.114 38.7727 394.708 39.118H396.773V39.93H393.315V39.202L393.679 38.894ZM397.699 38.894C398.147 38.5207 398.504 38.2103 398.77 37.963C399.036 37.711 399.257 37.4497 399.435 37.179C399.612 36.9083 399.701 36.6423 399.701 36.381C399.701 36.143 399.645 35.9563 399.533 35.821C399.421 35.6857 399.248 35.618 399.015 35.618C398.781 35.618 398.602 35.6973 398.476 35.856C398.35 36.01 398.284 36.2223 398.28 36.493H397.328C397.346 35.933 397.512 35.5083 397.825 35.219C398.142 34.9297 398.543 34.785 399.029 34.785C399.561 34.785 399.969 34.9273 400.254 35.212C400.538 35.492 400.681 35.863 400.681 36.325C400.681 36.689 400.583 37.0367 400.387 37.368C400.191 37.6993 399.967 37.9887 399.715 38.236C399.463 38.4787 399.134 38.7727 398.728 39.118H400.793V39.93H397.335V39.202L397.699 38.894ZM404.147 33.371L402.257 41.267H401.298L403.188 33.371H404.147ZM404.814 37.382C404.814 36.5747 404.959 35.9423 405.248 35.485C405.542 35.0277 406.028 34.799 406.704 34.799C407.381 34.799 407.864 35.0277 408.153 35.485C408.447 35.9423 408.594 36.5747 408.594 37.382C408.594 38.194 408.447 38.831 408.153 39.293C407.864 39.755 407.381 39.986 406.704 39.986C406.028 39.986 405.542 39.755 405.248 39.293C404.959 38.831 404.814 38.194 404.814 37.382ZM407.628 37.382C407.628 37.0367 407.605 36.7473 407.558 36.514C407.516 36.276 407.428 36.0823 407.292 35.933C407.162 35.7837 406.966 35.709 406.704 35.709C406.443 35.709 406.245 35.7837 406.109 35.933C405.979 36.0823 405.89 36.276 405.843 36.514C405.801 36.7473 405.78 37.0367 405.78 37.382C405.78 37.7367 405.801 38.0353 405.843 38.278C405.885 38.516 405.974 38.7097 406.109 38.859C406.245 39.0037 406.443 39.076 406.704 39.076C406.966 39.076 407.164 39.0037 407.299 38.859C407.435 38.7097 407.523 38.516 407.565 38.278C407.607 38.0353 407.628 37.7367 407.628 37.382ZM412.588 35.639L410.726 40H409.732L411.608 35.751H409.214V34.911H412.588V35.639ZM415.912 33.371L414.022 41.267H413.063L414.953 33.371H415.912ZM416.887 38.894C417.335 38.5207 417.692 38.2103 417.958 37.963C418.224 37.711 418.446 37.4497 418.623 37.179C418.8 36.9083 418.889 36.6423 418.889 36.381C418.889 36.143 418.833 35.9563 418.721 35.821C418.609 35.6857 418.436 35.618 418.203 35.618C417.97 35.618 417.79 35.6973 417.664 35.856C417.538 36.01 417.473 36.2223 417.468 36.493H416.516C416.535 35.933 416.7 35.5083 417.013 35.219C417.33 34.9297 417.732 34.785 418.217 34.785C418.749 34.785 419.157 34.9273 419.442 35.212C419.727 35.492 419.869 35.863 419.869 36.325C419.869 36.689 419.771 37.0367 419.575 37.368C419.379 37.6993 419.155 37.9887 418.903 38.236C418.651 38.4787 418.322 38.7727 417.916 39.118H419.981V39.93H416.523V39.202L416.887 38.894ZM420.599 37.382C420.599 36.5747 420.743 35.9423 421.033 35.485C421.327 35.0277 421.812 34.799 422.489 34.799C423.165 34.799 423.648 35.0277 423.938 35.485C424.232 35.9423 424.379 36.5747 424.379 37.382C424.379 38.194 424.232 38.831 423.938 39.293C423.648 39.755 423.165 39.986 422.489 39.986C421.812 39.986 421.327 39.755 421.033 39.293C420.743 38.831 420.599 38.194 420.599 37.382ZM423.413 37.382C423.413 37.0367 423.389 36.7473 423.343 36.514C423.301 36.276 423.212 36.0823 423.077 35.933C422.946 35.7837 422.75 35.709 422.489 35.709C422.227 35.709 422.029 35.7837 421.894 35.933C421.763 36.0823 421.674 36.276 421.628 36.514C421.586 36.7473 421.565 37.0367 421.565 37.382C421.565 37.7367 421.586 38.0353 421.628 38.278C421.67 38.516 421.758 38.7097 421.894 38.859C422.029 39.0037 422.227 39.076 422.489 39.076C422.75 39.076 422.948 39.0037 423.084 38.859C423.219 38.7097 423.308 38.516 423.35 38.278C423.392 38.0353 423.413 37.7367 423.413 37.382ZM425.432 38.894C425.88 38.5207 426.237 38.2103 426.503 37.963C426.769 37.711 426.991 37.4497 427.168 37.179C427.345 36.9083 427.434 36.6423 427.434 36.381C427.434 36.143 427.378 35.9563 427.266 35.821C427.154 35.6857 426.981 35.618 426.748 35.618C426.515 35.618 426.335 35.6973 426.209 35.856C426.083 36.01 426.018 36.2223 426.013 36.493H425.061C425.08 35.933 425.245 35.5083 425.558 35.219C425.875 34.9297 426.277 34.785 426.762 34.785C427.294 34.785 427.702 34.9273 427.987 35.212C428.272 35.492 428.414 35.863 428.414 36.325C428.414 36.689 428.316 37.0367 428.12 37.368C427.924 37.6993 427.7 37.9887 427.448 38.236C427.196 38.4787 426.867 38.7727 426.461 39.118H428.526V39.93H425.068V39.202L425.432 38.894ZM429.451 38.894C429.899 38.5207 430.256 38.2103 430.522 37.963C430.788 37.711 431.01 37.4497 431.187 37.179C431.365 36.9083 431.453 36.6423 431.453 36.381C431.453 36.143 431.397 35.9563 431.285 35.821C431.173 35.6857 431.001 35.618 430.767 35.618C430.534 35.618 430.354 35.6973 430.228 35.856C430.102 36.01 430.037 36.2223 430.032 36.493H429.08C429.099 35.933 429.265 35.5083 429.577 35.219C429.895 34.9297 430.296 34.785 430.781 34.785C431.313 34.785 431.722 34.9273 432.006 35.212C432.291 35.492 432.433 35.863 432.433 36.325C432.433 36.689 432.335 37.0367 432.139 37.368C431.943 37.6993 431.719 37.9887 431.467 38.236C431.215 38.4787 430.886 38.7727 430.48 39.118H432.545V39.93H429.087V39.202L429.451 38.894Z" fill="#3C8AFF"/>
<path d="M323.84 59.515V63H323.385V59.515H323.84ZM325.7 59.515C326.08 59.515 326.409 59.5867 326.685 59.73C326.965 59.87 327.179 60.0717 327.325 60.335C327.475 60.5983 327.55 60.9083 327.55 61.265C327.55 61.6217 327.475 61.9317 327.325 62.195C327.179 62.455 326.965 62.655 326.685 62.795C326.409 62.9317 326.08 63 325.7 63H324.615V59.515H325.7ZM325.7 62.625C326.15 62.625 326.494 62.5067 326.73 62.27C326.967 62.03 327.085 61.695 327.085 61.265C327.085 60.8317 326.965 60.4933 326.725 60.25C326.489 60.0067 326.147 59.885 325.7 59.885H325.07V62.625H325.7ZM329.314 61.62C329.314 61.34 329.37 61.095 329.484 60.885C329.597 60.6717 329.752 60.5067 329.949 60.39C330.149 60.2733 330.37 60.215 330.614 60.215C330.854 60.215 331.062 60.2667 331.239 60.37C331.415 60.4733 331.547 60.6033 331.634 60.76V60.26H332.094V63H331.634V62.49C331.544 62.65 331.409 62.7833 331.229 62.89C331.052 62.9933 330.845 63.045 330.609 63.045C330.365 63.045 330.145 62.985 329.949 62.865C329.752 62.745 329.597 62.5767 329.484 62.36C329.37 62.1433 329.314 61.8967 329.314 61.62ZM331.634 61.625C331.634 61.4183 331.592 61.2383 331.509 61.085C331.425 60.9317 331.312 60.815 331.169 60.735C331.029 60.6517 330.874 60.61 330.704 60.61C330.534 60.61 330.379 60.65 330.239 60.73C330.099 60.81 329.987 60.9267 329.904 61.08C329.82 61.2333 329.779 61.4133 329.779 61.62C329.779 61.83 329.82 62.0133 329.904 62.17C329.987 62.3233 330.099 62.4417 330.239 62.525C330.379 62.605 330.534 62.645 330.704 62.645C330.874 62.645 331.029 62.605 331.169 62.525C331.312 62.4417 331.425 62.3233 331.509 62.17C331.592 62.0133 331.634 61.8317 331.634 61.625ZM333.993 60.215C334.229 60.215 334.436 60.2667 334.613 60.37C334.793 60.4733 334.926 60.6033 335.013 60.76V60.26H335.473V63.06C335.473 63.31 335.419 63.5317 335.313 63.725C335.206 63.9217 335.053 64.075 334.853 64.185C334.656 64.295 334.426 64.35 334.163 64.35C333.803 64.35 333.503 64.265 333.263 64.095C333.023 63.925 332.881 63.6933 332.838 63.4H333.288C333.338 63.5667 333.441 63.7 333.598 63.8C333.754 63.9033 333.943 63.955 334.163 63.955C334.413 63.955 334.616 63.8767 334.773 63.72C334.933 63.5633 335.013 63.3433 335.013 63.06V62.485C334.923 62.645 334.789 62.7783 334.613 62.885C334.436 62.9917 334.229 63.045 333.993 63.045C333.749 63.045 333.528 62.985 333.328 62.865C333.131 62.745 332.976 62.5767 332.863 62.36C332.749 62.1433 332.693 61.8967 332.693 61.62C332.693 61.34 332.749 61.095 332.863 60.885C332.976 60.6717 333.131 60.5067 333.328 60.39C333.528 60.2733 333.749 60.215 333.993 60.215ZM335.013 61.625C335.013 61.4183 334.971 61.2383 334.888 61.085C334.804 60.9317 334.691 60.815 334.548 60.735C334.408 60.6517 334.253 60.61 334.083 60.61C333.913 60.61 333.758 60.65 333.618 60.73C333.478 60.81 333.366 60.9267 333.283 61.08C333.199 61.2333 333.158 61.4133 333.158 61.62C333.158 61.83 333.199 62.0133 333.283 62.17C333.366 62.3233 333.478 62.4417 333.618 62.525C333.758 62.605 333.913 62.645 334.083 62.645C334.253 62.645 334.408 62.605 334.548 62.525C334.691 62.4417 334.804 62.3233 334.888 62.17C334.971 62.0133 335.013 61.8317 335.013 61.625ZM336.056 62.195V61.85L337.811 59.42H338.356V61.8H338.856V62.195H338.356V63H337.906V62.195H336.056ZM337.926 59.895L336.581 61.8H337.926V59.895ZM339.301 60.295C339.324 59.9883 339.443 59.7483 339.656 59.575C339.869 59.4017 340.146 59.315 340.486 59.315C340.713 59.315 340.908 59.3567 341.071 59.44C341.238 59.52 341.363 59.63 341.446 59.77C341.533 59.91 341.576 60.0683 341.576 60.245C341.576 60.4517 341.516 60.63 341.396 60.78C341.279 60.93 341.126 61.0267 340.936 61.07V61.095C341.153 61.1483 341.324 61.2533 341.451 61.41C341.578 61.5667 341.641 61.7717 341.641 62.025C341.641 62.215 341.598 62.3867 341.511 62.54C341.424 62.69 341.294 62.8083 341.121 62.895C340.948 62.9817 340.739 63.025 340.496 63.025C340.143 63.025 339.853 62.9333 339.626 62.75C339.399 62.5633 339.273 62.3 339.246 61.96H339.686C339.709 62.16 339.791 62.3233 339.931 62.45C340.071 62.5767 340.258 62.64 340.491 62.64C340.724 62.64 340.901 62.58 341.021 62.46C341.144 62.3367 341.206 62.1783 341.206 61.985C341.206 61.735 341.123 61.555 340.956 61.445C340.789 61.335 340.538 61.28 340.201 61.28H340.086V60.9H340.206C340.513 60.8967 340.744 60.8467 340.901 60.75C341.058 60.65 341.136 60.4967 341.136 60.29C341.136 60.1133 341.078 59.9717 340.961 59.865C340.848 59.7583 340.684 59.705 340.471 59.705C340.264 59.705 340.098 59.7583 339.971 59.865C339.844 59.9717 339.769 60.115 339.746 60.295H339.301ZM343.35 62.58L344.2 60.26H344.685L343.61 63H343.08L342.005 60.26H342.495L343.35 62.58ZM346.248 60.635H345.673V63H345.218V60.635H344.863V60.26H345.218V60.065C345.218 59.7583 345.296 59.535 345.453 59.395C345.613 59.2517 345.868 59.18 346.218 59.18V59.56C346.018 59.56 345.876 59.6 345.793 59.68C345.713 59.7567 345.673 59.885 345.673 60.065V60.26H346.248V60.635ZM347.909 60.215C348.145 60.215 348.352 60.2667 348.529 60.37C348.709 60.4733 348.842 60.6033 348.929 60.76V60.26H349.389V63.06C349.389 63.31 349.335 63.5317 349.229 63.725C349.122 63.9217 348.969 64.075 348.769 64.185C348.572 64.295 348.342 64.35 348.079 64.35C347.719 64.35 347.419 64.265 347.179 64.095C346.939 63.925 346.797 63.6933 346.754 63.4H347.204C347.254 63.5667 347.357 63.7 347.514 63.8C347.67 63.9033 347.859 63.955 348.079 63.955C348.329 63.955 348.532 63.8767 348.689 63.72C348.849 63.5633 348.929 63.3433 348.929 63.06V62.485C348.839 62.645 348.705 62.7783 348.529 62.885C348.352 62.9917 348.145 63.045 347.909 63.045C347.665 63.045 347.444 62.985 347.244 62.865C347.047 62.745 346.892 62.5767 346.779 62.36C346.665 62.1433 346.609 61.8967 346.609 61.62C346.609 61.34 346.665 61.095 346.779 60.885C346.892 60.6717 347.047 60.5067 347.244 60.39C347.444 60.2733 347.665 60.215 347.909 60.215ZM348.929 61.625C348.929 61.4183 348.887 61.2383 348.804 61.085C348.72 60.9317 348.607 60.815 348.464 60.735C348.324 60.6517 348.169 60.61 347.999 60.61C347.829 60.61 347.674 60.65 347.534 60.73C347.394 60.81 347.282 60.9267 347.199 61.08C347.115 61.2333 347.074 61.4133 347.074 61.62C347.074 61.83 347.115 62.0133 347.199 62.17C347.282 62.3233 347.394 62.4417 347.534 62.525C347.674 62.605 347.829 62.645 347.999 62.645C348.169 62.645 348.324 62.605 348.464 62.525C348.607 62.4417 348.72 62.3233 348.804 62.17C348.887 62.0133 348.929 61.8317 348.929 61.625ZM323.679 72.894C324.127 72.5207 324.484 72.2103 324.75 71.963C325.016 71.711 325.238 71.4497 325.415 71.179C325.592 70.9083 325.681 70.6423 325.681 70.381C325.681 70.143 325.625 69.9563 325.513 69.821C325.401 69.6857 325.228 69.618 324.995 69.618C324.762 69.618 324.582 69.6973 324.456 69.856C324.33 70.01 324.265 70.2223 324.26 70.493H323.308C323.327 69.933 323.492 69.5083 323.805 69.219C324.122 68.9297 324.524 68.785 325.009 68.785C325.541 68.785 325.949 68.9273 326.234 69.212C326.519 69.492 326.661 69.863 326.661 70.325C326.661 70.689 326.563 71.0367 326.367 71.368C326.171 71.6993 325.947 71.9887 325.695 72.236C325.443 72.4787 325.114 72.7727 324.708 73.118H326.773V73.93H323.315V73.202L323.679 72.894ZM327.699 72.894C328.147 72.5207 328.504 72.2103 328.77 71.963C329.036 71.711 329.257 71.4497 329.435 71.179C329.612 70.9083 329.701 70.6423 329.701 70.381C329.701 70.143 329.645 69.9563 329.533 69.821C329.421 69.6857 329.248 69.618 329.015 69.618C328.781 69.618 328.602 69.6973 328.476 69.856C328.35 70.01 328.284 70.2223 328.28 70.493H327.328C327.346 69.933 327.512 69.5083 327.825 69.219C328.142 68.9297 328.543 68.785 329.029 68.785C329.561 68.785 329.969 68.9273 330.254 69.212C330.538 69.492 330.681 69.863 330.681 70.325C330.681 70.689 330.583 71.0367 330.387 71.368C330.191 71.6993 329.967 71.9887 329.715 72.236C329.463 72.4787 329.134 72.7727 328.728 73.118H330.793V73.93H327.335V73.202L327.699 72.894ZM334.147 67.371L332.257 75.267H331.298L333.188 67.371H334.147ZM334.814 71.382C334.814 70.5747 334.959 69.9423 335.248 69.485C335.542 69.0277 336.028 68.799 336.704 68.799C337.381 68.799 337.864 69.0277 338.153 69.485C338.447 69.9423 338.594 70.5747 338.594 71.382C338.594 72.194 338.447 72.831 338.153 73.293C337.864 73.755 337.381 73.986 336.704 73.986C336.028 73.986 335.542 73.755 335.248 73.293C334.959 72.831 334.814 72.194 334.814 71.382ZM337.628 71.382C337.628 71.0367 337.605 70.7473 337.558 70.514C337.516 70.276 337.428 70.0823 337.292 69.933C337.162 69.7837 336.966 69.709 336.704 69.709C336.443 69.709 336.245 69.7837 336.109 69.933C335.979 70.0823 335.89 70.276 335.843 70.514C335.801 70.7473 335.78 71.0367 335.78 71.382C335.78 71.7367 335.801 72.0353 335.843 72.278C335.885 72.516 335.974 72.7097 336.109 72.859C336.245 73.0037 336.443 73.076 336.704 73.076C336.966 73.076 337.164 73.0037 337.299 72.859C337.435 72.7097 337.523 72.516 337.565 72.278C337.607 72.0353 337.628 71.7367 337.628 71.382ZM342.588 69.639L340.726 74H339.732L341.608 69.751H339.214V68.911H342.588V69.639ZM345.912 67.371L344.022 75.267H343.063L344.953 67.371H345.912ZM346.887 72.894C347.335 72.5207 347.692 72.2103 347.958 71.963C348.224 71.711 348.446 71.4497 348.623 71.179C348.8 70.9083 348.889 70.6423 348.889 70.381C348.889 70.143 348.833 69.9563 348.721 69.821C348.609 69.6857 348.436 69.618 348.203 69.618C347.97 69.618 347.79 69.6973 347.664 69.856C347.538 70.01 347.473 70.2223 347.468 70.493H346.516C346.535 69.933 346.7 69.5083 347.013 69.219C347.33 68.9297 347.732 68.785 348.217 68.785C348.749 68.785 349.157 68.9273 349.442 69.212C349.727 69.492 349.869 69.863 349.869 70.325C349.869 70.689 349.771 71.0367 349.575 71.368C349.379 71.6993 349.155 71.9887 348.903 72.236C348.651 72.4787 348.322 72.7727 347.916 73.118H349.981V73.93H346.523V73.202L346.887 72.894ZM350.599 71.382C350.599 70.5747 350.743 69.9423 351.033 69.485C351.327 69.0277 351.812 68.799 352.489 68.799C353.165 68.799 353.648 69.0277 353.938 69.485C354.232 69.9423 354.379 70.5747 354.379 71.382C354.379 72.194 354.232 72.831 353.938 73.293C353.648 73.755 353.165 73.986 352.489 73.986C351.812 73.986 351.327 73.755 351.033 73.293C350.743 72.831 350.599 72.194 350.599 71.382ZM353.413 71.382C353.413 71.0367 353.389 70.7473 353.343 70.514C353.301 70.276 353.212 70.0823 353.077 69.933C352.946 69.7837 352.75 69.709 352.489 69.709C352.227 69.709 352.029 69.7837 351.894 69.933C351.763 70.0823 351.674 70.276 351.628 70.514C351.586 70.7473 351.565 71.0367 351.565 71.382C351.565 71.7367 351.586 72.0353 351.628 72.278C351.67 72.516 351.758 72.7097 351.894 72.859C352.029 73.0037 352.227 73.076 352.489 73.076C352.75 73.076 352.948 73.0037 353.084 72.859C353.219 72.7097 353.308 72.516 353.35 72.278C353.392 72.0353 353.413 71.7367 353.413 71.382ZM355.432 72.894C355.88 72.5207 356.237 72.2103 356.503 71.963C356.769 71.711 356.991 71.4497 357.168 71.179C357.345 70.9083 357.434 70.6423 357.434 70.381C357.434 70.143 357.378 69.9563 357.266 69.821C357.154 69.6857 356.981 69.618 356.748 69.618C356.515 69.618 356.335 69.6973 356.209 69.856C356.083 70.01 356.018 70.2223 356.013 70.493H355.061C355.08 69.933 355.245 69.5083 355.558 69.219C355.875 68.9297 356.277 68.785 356.762 68.785C357.294 68.785 357.702 68.9273 357.987 69.212C358.272 69.492 358.414 69.863 358.414 70.325C358.414 70.689 358.316 71.0367 358.12 71.368C357.924 71.6993 357.7 71.9887 357.448 72.236C357.196 72.4787 356.867 72.7727 356.461 73.118H358.526V73.93H355.068V73.202L355.432 72.894ZM359.451 72.894C359.899 72.5207 360.256 72.2103 360.522 71.963C360.788 71.711 361.01 71.4497 361.187 71.179C361.365 70.9083 361.453 70.6423 361.453 70.381C361.453 70.143 361.397 69.9563 361.285 69.821C361.173 69.6857 361.001 69.618 360.767 69.618C360.534 69.618 360.354 69.6973 360.228 69.856C360.102 70.01 360.037 70.2223 360.032 70.493H359.08C359.099 69.933 359.265 69.5083 359.577 69.219C359.895 68.9297 360.296 68.785 360.781 68.785C361.313 68.785 361.722 68.9273 362.006 69.212C362.291 69.492 362.433 69.863 362.433 70.325C362.433 70.689 362.335 71.0367 362.139 71.368C361.943 71.6993 361.719 71.9887 361.467 72.236C361.215 72.4787 360.886 72.7727 360.48 73.118H362.545V73.93H359.087V73.202L359.451 72.894Z" fill="#3C8AFF"/>
</svg>
