<svg width="80" height="80" viewBox="0 0 80 80" fill="none" xmlns="http://www.w3.org/2000/svg">
<path d="M69.28 43.96L69.24 44.04C69.4 42.72 69.56 41.36 69.56 40C69.56 38.64 69.44 37.36 69.28 36.04L69.32 36.12L79.08 28.44L69.36 11.56L57.88 16.2L57.92 16.24C55.84 14.64 53.56 13.28 51.08 12.24H51.12L49.28 0H29.8L28.04 12.28H28.08C25.6 13.32 23.32 14.68 21.24 16.28L21.28 16.24L9.76 11.56L0 28.44L9.76 36.12L9.8 36.04C9.64 37.36 9.52 38.64 9.52 40C9.52 41.36 9.64 42.72 9.84 44.04L9.8 43.96L1.4 50.56L0.0800009 51.6L9.8 68.4L21.32 63.8L21.24 63.64C23.36 65.28 25.64 66.64 28.16 67.68H28.04L29.84 80H49.24C49.24 80 49.36 79.28 49.48 78.32L51 67.72H50.96C53.44 66.68 55.76 65.32 57.88 63.68L57.8 63.84L69.32 68.44L79.04 51.64C79.04 51.64 78.48 51.16 77.72 50.6L69.28 43.96ZM39.52 54C31.8 54 25.52 47.72 25.52 40C25.52 32.28 31.8 26 39.52 26C47.24 26 53.52 32.28 53.52 40C53.52 47.72 47.24 54 39.52 54Z" fill="#F3F3F3"/>
</svg>
